<?xml version="1.0" encoding="UTF-8" standalone="no"?>
<!-- Created with Inkscape (http://www.inkscape.org/) -->

<svg
   xmlns:dc="http://purl.org/dc/elements/1.1/"
   xmlns:cc="http://creativecommons.org/ns#"
   xmlns:rdf="http://www.w3.org/1999/02/22-rdf-syntax-ns#"
   xmlns:svg="http://www.w3.org/2000/svg"
   xmlns="http://www.w3.org/2000/svg"
   xmlns:sodipodi="http://sodipodi.sourceforge.net/DTD/sodipodi-0.dtd"
   xmlns:inkscape="http://www.inkscape.org/namespaces/inkscape"
   width="210mm"
   height="297mm"
   viewBox="0 0 210 297"
   version="1.1"
   id="svg3719"
   sodipodi:docname="dessin.svg"
   inkscape:version="0.92.4 (5da689c313, 2019-01-14)">
  <defs
     id="defs3713" />
  <sodipodi:namedview
     id="base"
     pagecolor="#ffffff"
     bordercolor="#666666"
     borderopacity="1.0"
     inkscape:pageopacity="0.0"
     inkscape:pageshadow="2"
     inkscape:zoom="0.7"
     inkscape:cx="101.55189"
     inkscape:cy="761.23515"
     inkscape:document-units="mm"
     inkscape:current-layer="svg3719"
     showgrid="false"
     inkscape:window-width="1920"
     inkscape:window-height="1016"
     inkscape:window-x="0"
     inkscape:window-y="27"
     inkscape:window-maximized="1" />
  <metadata
     id="metadata3716">
    <rdf:RDF>
      <cc:Work
         rdf:about="">
        <dc:format>image/svg+xml</dc:format>
        <dc:type
           rdf:resource="http://purl.org/dc/dcmitype/StillImage" />
        <dc:title></dc:title>
      </cc:Work>
    </rdf:RDF>
  </metadata>
  <path
     style="color:#000000;font-style:normal;font-variant:normal;font-weight:normal;font-stretch:normal;font-size:medium;line-height:normal;font-family:sans-serif;font-variant-ligatures:normal;font-variant-position:normal;font-variant-caps:normal;font-variant-numeric:normal;font-variant-alternates:normal;font-feature-settings:normal;text-indent:0;text-align:start;text-decoration:none;text-decoration-line:none;text-decoration-style:solid;text-decoration-color:#000000;letter-spacing:normal;word-spacing:normal;text-transform:none;writing-mode:lr-tb;direction:ltr;text-orientation:mixed;dominant-baseline:auto;baseline-shift:baseline;text-anchor:start;white-space:normal;shape-padding:0;clip-rule:nonzero;display:inline;overflow:visible;visibility:visible;opacity:1;isolation:auto;mix-blend-mode:normal;color-interpolation:sRGB;color-interpolation-filters:linearRGB;solid-color:#000000;solid-opacity:1;vector-effect:none;fill:none;fill-opacity:1;fill-rule:evenodd;stroke:#000000;stroke-width:4.06500006;stroke-linecap:butt;stroke-linejoin:bevel;stroke-miterlimit:4;stroke-dasharray:none;stroke-dashoffset:0;stroke-opacity:1;color-rendering:auto;image-rendering:auto;shape-rendering:auto;text-rendering:auto;enable-background:accumulate;paint-order:markers fill stroke"
     d="m 160.81445,47.626953 c -9.55522,0.261791 -19.24461,1.882375 -26.85937,3.976563 -3.80738,1.047093 -7.09467,2.213135 -9.5918,3.388672 -2.49713,1.175536 -4.20551,2.347917 -4.85547,3.476562 -13.62531,23.660112 -21.728642,36.848963 -26.492185,43.0332 -1.190886,1.54606 -2.172286,2.65338 -2.974609,3.375 -0.802324,0.72162 -1.425882,1.04809 -1.869141,1.06641 -0.221629,0.009 -0.400533,-0.051 -0.5625,-0.17969 -0.161967,-0.12866 -0.305418,-0.33228 -0.427734,-0.60937 -0.244634,-0.5542 -0.770471,-1.43507 -0.478516,-2.46289 6.775811,-23.854138 39.215955,-118.989787 0.197266,-19.880863 -2.86552,7.278529 -1.62223,-15.67039 -6.300782,-20.0625 l -0.0059,-0.0059 -0.0059,-0.0039 C 73.20069,57.245262 67.727474,55.862037 63.667887,56.921841 59.6083,57.981645 57.007431,61.474347 55.345621,65.628872 52.022001,73.937924 52.406168,84.95895 52.406168,84.95895 l 0.265625,-0.0078 c 0,0 -0.371041,-10.995249 2.919922,-19.222656 1.645481,-4.113704 4.193794,-7.519904 8.142578,-8.550782 3.94722,-1.030468 -11.450678,58.511078 -4.10119,63.973958 4.578713,4.30211 26.727196,-46.122256 27.003534,-38.33138 0.276417,7.793106 -0.524441,15.572235 -0.197266,19.89063 0.08179,1.0796 0.232226,1.94416 0.5,2.55078 0.133887,0.30331 0.298359,0.54415 0.505859,0.70898 0.207501,0.16483 0.459987,0.24783 0.738282,0.23633 0.55659,-0.023 37.810348,37.26417 37.184988,38.17671 -126.5019009,184.59444 -33.33851,-41.16829 -32.14202,-42.72163 135.90416,-6.213351 12.91549,-19.397983 26.50977,-43.06055 0.5866,-1.021047 2.26121,-2.204999 4.73828,-3.371093 2.47707,-1.166095 6.44174,-5.787239 9.55078,-3.371094 48.35533,37.578631 21.28207,0.203725 26.79492,-3.966797 7.60321,-5.751905 18.92034,0.8366 25.94336,4.16211 7.02303,3.325509 11.6813,8.852529 11.81836,17.519531 0.27492,17.384386 -7.92804,35.216993 -15.93359,48.962893 -4.00278,6.87295 -7.95512,12.72494 -10.77149,16.99219 -1.40818,2.13362 -2.53139,3.87036 -3.23828,5.14648 -0.35344,0.63806 -0.60321,1.15863 -0.73242,1.56641 -0.0646,0.20389 -0.10091,0.37927 -0.0996,0.5332 0.001,0.15393 0.0436,0.29574 0.14453,0.39258 l 0.1836,-0.19141 c -0.0362,-0.0347 -0.0616,-0.0932 -0.0625,-0.20312 -9.3e-4,-0.10991 0.0264,-0.26333 0.0859,-0.45117 0.11904,-0.37569 -34.79013,99.2747 -34.44085,98.64415 0.69856,-1.26109 36.97284,-103.16006 38.38031,-105.29259 2.81493,-4.26508 18.44945,-19.14736 10.77929,-17.00391 -127.736667,35.69636 16.23671,-31.626211 15.96875,-49.09961 -0.13435,-8.760441 -4.88375,-14.401003 -11.96875,-17.755859 -7.085,-3.354855 -16.50728,-4.449291 -26.0625,-4.1875 z"
     id="path4726"
     inkscape:connector-curvature="0"
     sodipodi:nodetypes="cssssscccsscccssccsscscscsscsssssssscccccccccssscc" />
</svg>
